# xmcd CD database file
# Copyright (C) 1994 Ti Kan
#
# Track frame offsets:
#	187
#	21952
#	45500
#	63887
#	79260
#	100417
#	120267
#	135445
#	157065
#	175180
#
# Disc length: 2524 seconds
#
# Revision: 1
# Processed by: cddbd v1.4b41PL1 Copyright (c) Steve Scherf et al.
# Submitted via: xmcd 1.3
#
DISCID=7809da0a
DTITLE=K.T. Oslin - This Woman
DYEAR=1900
DGENRE=
TTITLE0=This Woman
TTITLE1=Money
TTITLE2=Round The Clock Lovin'
TTITLE3=Where Is A Woman To Go
TTITLE4=Hold Me
TTITLE5=Hey Bobby
TTITLE6=She Don't Talk Like Us No More
TTITLE7=Jealous
TTITLE8=Didn't Expect It To Go Down This Way
TTITLE9=Truly Blue
EXTD=
EXTT0=
EXTT1=
EXTT2=
EXTT3=
EXTT4=
EXTT5=
EXTT6=
EXTT7=
EXTT8=
EXTT9=
PLAYORDER=
